<!DOCTYPE svg PUBLIC "-//W3C//DTD SVG 1.1//EN" "http://www.w3.org/Graphics/SVG/1.1/DTD/svg11.dtd">
<!-- Uploaded to: SVG Repo, www.svgrepo.com, Transformed by: SVG Repo Mixer Tools -->
<svg fill="#ffffff" height="800px" width="800px" version="1.1" id="Capa_1" xmlns="http://www.w3.org/2000/svg" xmlns:xlink="http://www.w3.org/1999/xlink" viewBox="-27.96 -27.96 455.36 455.36" xml:space="preserve" stroke="#ffffff">
<g id="SVGRepo_bgCarrier" stroke-width="0"/>
<g id="SVGRepo_tracerCarrier" stroke-linecap="round" stroke-linejoin="round"/>
<g id="SVGRepo_iconCarrier"> <path d="M269.083,27.199c-3.221-3.786-2.762-9.466,1.024-12.687l14.54-12.368c3.786-3.219,9.466-2.762,12.687,1.024 c3.22,3.786,2.762,9.466-1.024,12.687l-14.54,12.368c-1.693,1.44-3.766,2.145-5.827,2.145 C273.395,30.368,270.863,29.292,269.083,27.199z M295.257,65.279c-4.973-0.004-9.026,3.969-9.06,8.939s3.969,9.058,8.939,9.092 l19.089,0.16c0.021,0,0.041,0,0.062,0c4.942,0,8.965-4.021,8.999-8.971c0.033-4.97-3.969-9.043-8.939-9.076L295.257,65.279z M283.845,48.451c1.33,3.655,4.781,5.924,8.458,5.924c1.022,0,2.062-0.175,3.078-0.545l31.626-11.511 c4.671-1.7,7.079-6.864,5.379-11.535c-1.7-4.672-6.867-7.079-11.535-5.379l-31.626,11.511 C284.553,38.615,282.144,43.78,283.845,48.451z M219.274,333.291c-0.93,4.818-3.157,10.442-6.272,15.837 c-8.634,14.958-19.1,21.5-27.453,17.235l-13.208-5.902c-5.056,3.819-10.521,6.977-16.337,9.438l-1.489,14.339 c-0.443,9.395-11.337,15.201-28.655,15.201c-17.274,0-28.174-5.793-28.654-15.163L95.713,369.9 c-5.815-2.461-11.28-5.619-16.336-9.439l-13.171,5.885c-8.356,4.312-18.832-2.221-27.49-17.217 c-8.642-14.968-9.071-27.308-1.186-32.404l11.65-8.44c-0.39-3.162-0.587-6.355-0.587-9.548c0-3.143,0.191-6.287,0.569-9.4 l-11.652-8.441c-7.864-5.105-7.428-17.436,1.206-32.39c8.658-14.997,19.134-21.528,27.491-17.217l13.036,5.825 c5.098-3.869,10.614-7.063,16.489-9.547l1.474-14.218c0.487-9.364,11.385-15.154,28.654-15.154c17.317,0,28.21,5.807,28.655,15.2 l1.472,14.171c5.874,2.484,11.39,5.677,16.488,9.546l13.067-5.838c8.355-4.272,18.825,2.269,27.462,17.233 c3.114,5.393,5.342,11.018,6.271,15.835c1.942,10.063-2.114,14.628-5.088,16.565l-11.63,8.427c0.378,3.115,0.569,6.26,0.569,9.403 c0,3.193-0.197,6.388-0.587,9.551l11.65,8.441C217.161,318.664,221.216,323.229,219.274,333.291z M187.518,277.999l14.095-10.213 c-0.412-2.107-1.613-5.804-4.199-10.283c-2.587-4.482-5.189-7.371-6.808-8.781l-15.86,7.087c-3.224,1.441-6.991,0.864-9.635-1.476 c-5.989-5.299-12.842-9.267-20.369-11.794c-3.343-1.123-5.723-4.094-6.087-7.602l-1.79-17.24c-2.031-0.697-5.833-1.505-11.006-1.505 c-5.175,0-8.978,0.809-11.009,1.506l-1.787,17.238c-0.364,3.508-2.743,6.48-6.086,7.604c-7.528,2.528-14.382,6.497-20.371,11.795 c-2.644,2.34-6.412,2.916-9.635,1.476l-15.86-7.086c-1.619,1.41-4.22,4.299-6.806,8.78c-2.588,4.481-3.789,8.179-4.2,10.286 l14.095,10.211c2.85,2.065,4.235,5.602,3.545,9.053c-0.764,3.819-1.151,7.75-1.151,11.681c0,3.973,0.396,7.945,1.175,11.805 c0.698,3.456-0.686,7.001-3.542,9.07l-14.122,10.232c0.412,2.107,1.613,5.805,4.2,10.287c2.586,4.48,5.188,7.369,6.806,8.779 l15.982-7.141c3.216-1.437,6.975-0.866,9.619,1.462c5.962,5.25,12.775,9.185,20.25,11.698c3.342,1.124,5.72,4.095,6.084,7.602 l1.805,17.405c2.031,0.697,5.833,1.506,11.009,1.506c5.173,0,8.975-0.809,11.005-1.505l1.808-17.407 c0.364-3.507,2.742-6.478,6.084-7.602c7.477-2.514,14.289-6.449,20.249-11.698c2.645-2.329,6.404-2.899,9.62-1.462l15.98,7.142 c1.619-1.41,4.221-4.298,6.808-8.78c2.587-4.48,3.788-8.178,4.2-10.285l-14.122-10.231c-2.855-2.068-4.239-5.613-3.542-9.069 c0.78-3.863,1.175-7.835,1.175-11.808c0-3.93-0.387-7.861-1.151-11.684C183.284,283.6,184.669,280.064,187.518,277.999z M160.102,298.726c0,18.882-15.361,34.243-34.243,34.243c-18.882,0-34.244-15.361-34.244-34.243 c0-18.881,15.362-34.243,34.244-34.243C144.741,264.484,160.102,279.845,160.102,298.726z M142.102,298.726 c0-8.956-7.287-16.243-16.243-16.243c-8.957,0-16.244,7.287-16.244,16.243c0,8.957,7.287,16.243,16.244,16.243 C134.815,314.97,142.102,307.683,142.102,298.726z M366.314,353.424l-28.891-78.914c-0.141-0.383-0.305-0.751-0.49-1.103 c-2.811-6.45-8.77-10.923-15.801-11.78c-4.385-0.543-8.691-0.782-12.856-1.012c-2.044-0.113-4.09-0.226-6.142-0.376 c-7.04-0.515-13.122-1.456-18.595-2.877c-11.282-2.928-18.685-7.112-24.006-13.565c-9.513-11.536-24.521-52.528-24.705-67.48 c-0.104-8.365,2.849-16.34,9.572-25.858c3.351-4.745,7.157-9.125,12.342-14.204c1.453-1.423,2.934-2.82,4.413-4.216 c2.699-2.548,5.487-5.18,8.171-8.013c5.909-5.483,7.932-13.854,5.148-21.453l-28.89-78.916 c-3.779-10.318-15.249-15.637-25.567-11.861l-19.973,7.31c-5.364,1.953-8.056,2.933-14.264,6.717 c-36.001,21.968-55.741,64.59-55.583,120.015c0.029,9.935,0.705,20.283,2.008,30.756c0.614,4.933,5.11,8.434,10.042,7.82 c4.933-0.614,8.434-5.11,7.82-10.042c-1.214-9.756-1.843-19.374-1.87-28.586c-0.14-48.888,16.537-86.035,46.955-104.596 c4.676-2.85,6.026-3.342,11.049-5.17l20.004-7.321c0.999-0.366,2.111,0.149,2.476,1.147l28.89,78.917 c0.333,0.911-0.078,1.704-0.531,2.106c-0.201,0.179-0.395,0.367-0.579,0.563c-2.393,2.543-4.953,4.959-7.663,7.518 c-1.559,1.472-3.118,2.944-4.651,4.445c-5.911,5.79-10.503,11.09-14.451,16.68c-8.93,12.643-13.019,24.23-12.868,36.464 c0.236,19.102,16.664,63.974,28.816,78.709c7.782,9.439,18.386,15.647,33.369,19.537c6.537,1.698,13.67,2.813,21.806,3.407 c2.156,0.158,4.309,0.278,6.46,0.397c4.043,0.224,7.862,0.435,11.657,0.905c0.843,0.103,1.351,0.703,1.544,1.23 c0.103,0.28,0.218,0.551,0.345,0.814l28.584,78.076c0.366,0.999-0.15,2.109-1.149,2.475l-18.166,6.651 c-7.004,2.565-9.118,3.339-16.242,4.221c-24.517,3.033-48.947-4.591-72.606-22.668c-3.949-3.017-9.597-2.263-12.616,1.687 c-3.018,3.95-2.263,9.598,1.687,12.616c23.282,17.79,48.405,26.993,73.346,26.993c4.142,0,8.278-0.253,12.4-0.764 c8.816-1.091,12.358-2.303,20.22-5.182l18.167-6.651C364.769,375.211,370.091,363.742,366.314,353.424z"/> </g>
</svg>